<?xml version="1.0" encoding="UTF-8"?>
<svg id="_레이어_2" data-name="레이어 2" xmlns="http://www.w3.org/2000/svg" xmlns:xlink="http://www.w3.org/1999/xlink" viewBox="0 0 2598.77 1478.92">
  <defs>
    <style>
      .cls-1 {
        clip-path: url(#clippath);
      }

      .cls-2 {
        fill: #f85c3d;
      }

      .cls-3 {
        fill: #e3eefd;
      }

      .cls-4 {
        fill: #eda26a;
      }

      .cls-5 {
        fill: #eecd76;
      }

      .cls-6 {
        fill: #fff;
      }

      .cls-7 {
        fill: #ffb6a6;
      }

      .cls-8 {
        fill: #ff8370;
      }

      .cls-9 {
        fill: #739bfd;
      }

      .cls-10 {
        fill: #a7bd37;
      }

      .cls-11 {
        fill: #a4c4ff;
      }

      .cls-12 {
        fill: #df4930;
      }

      .cls-13 {
        fill: #3e5409;
      }

      .cls-14 {
        fill: #1a1a35;
      }

      .cls-15 {
        fill: #38385c;
      }

      .cls-16 {
        fill: #3875ff;
      }

      .cls-17 {
        fill: #504f79;
      }

      .cls-18 {
        clip-path: url(#clippath-1);
      }

      .cls-19 {
        clip-path: url(#clippath-4);
      }

      .cls-20 {
        clip-path: url(#clippath-3);
      }

      .cls-21 {
        clip-path: url(#clippath-2);
      }

      .cls-22 {
        clip-path: url(#clippath-7);
      }

      .cls-23 {
        clip-path: url(#clippath-6);
      }

      .cls-24 {
        clip-path: url(#clippath-5);
      }
    </style>
    <clipPath id="clippath">
      <path class="cls-3" d="m60.15,1474.18h2445.28c-126.4-417.78-102.01-1271.14-692.41-1327.79,0-.02-962.58-141.12-962.58-141.12-195.24-28.62-388.89,61.08-493.29,228.49C-1.53,764.24,1.75,845.28,60.15,1474.18Z"/>
    </clipPath>
    <clipPath id="clippath-1">
      <polygon class="cls-11" points="239.29 1097.53 299.75 1397.72 788.83 1397.72 727.03 1097.53 239.29 1097.53"/>
    </clipPath>
    <clipPath id="clippath-2">
      <path class="cls-7" d="m1101.59,1304.99l-5.18,24.85s.95,26.07,18.19,30.99c17.25,4.92,19.48-.2,19.48-.2l14.37-42.27-46.87-13.36Z"/>
    </clipPath>
    <clipPath id="clippath-3">
      <path class="cls-7" d="m1824.81,1374.55l16.31,19.45s21.06,15.39,35.6,4.89c14.54-10.5,11.9-15.42,11.9-15.42l-23.34-35.95-40.48,27.04Z"/>
    </clipPath>
    <clipPath id="clippath-4">
      <path class="cls-4" d="m2004.69,347.89l-471.98,76.46c-9.47,1.53-18.28-5.23-19.25-14.77l-8.45-83.49c-.96-9.5,6.24-17.86,15.78-18.32l477.51-22.96,6.39,63.09Z"/>
    </clipPath>
    <clipPath id="clippath-5">
      <path class="cls-8" d="m1612.51,527.68l-48.65,49.26c-8.78,8.89-7.37,23.55,2.93,30.61l28.38,19.45-14.78,54.59,48.39,24.19,32.36-153.78-48.63-24.31Z"/>
    </clipPath>
    <clipPath id="clippath-6">
      <path class="cls-2" d="m1630.17,678.11l-27.68-85.99-97.57,36.44,27.91,98.27-142.19,178.77c49.8,82.16,223.11,73.14,223.11,73.14l40.26-249.71c3.33-20.68-6.57-40.68-23.84-50.92Z"/>
    </clipPath>
    <clipPath id="clippath-7">
      <path class="cls-7" d="m1670.23,339.12c-3.45-5.57-26.85,4.59-26.85,4.59,0,0,.44-40.33-.93-41.8-1.37-1.47-31.11-.67-36.07,2.3-2.34,1.4-7.78,56.85-7.78,56.85h0c-4.86,15.36-115.47,181.55-102.84,195.82,0,0,15.16,69.44,15.16,69.44l68.96-25.75-13.14-51.79c-.45-1.79-.32-3.67.39-5.37l72.04-173.59s34.53-25.12,31.08-30.69Z"/>
    </clipPath>
  </defs>
  <g id="Layer_1" data-name="Layer 1">
    <g>
      <path class="cls-3" d="m60.15,1474.18h2445.28c-126.4-417.78-102.01-1271.14-692.41-1327.79,0-.02-962.58-141.12-962.58-141.12-195.24-28.62-388.89,61.08-493.29,228.49C-1.53,764.24,1.75,845.28,60.15,1474.18Z"/>
      <g class="cls-1">
        <g>
          <path class="cls-10" d="m2520.43,1221.93s-60.06-239.11-341.11-389.21c0,0-11.87,335.81,332.3,492.97l8.81-103.75Z"/>
          <path class="cls-10" d="m2514.02,1297.36s-233.54-236.78-468.76-218.31c0,0,259.59,270.79,461.21,307.2l7.55-88.9Z"/>
          <path class="cls-10" d="m2506.47,1386.26s-233.86-132.73-431.56-128.63c0,0,243.06,193.57,421.87,242.71l9.69-114.08Z"/>
          <path class="cls-13" d="m2272.47,1127.97s82.61,134.96,239.14,197.71c0,0-238.41-89.41-278.38-216l39.24,18.29Z"/>
          <path class="cls-13" d="m2310.63,1299.17s141.23,74.61,195.84,87.08c0,0-111.62,5.44-226.69-95.56l30.85,8.48Z"/>
          <path class="cls-13" d="m2515.01,1278.64c-95.05-54.17-302.15-379.22-336.75-445.32l2.1-1.2c35.11,66.74,240.66,389.69,336.01,444.53l-1.37,2Z"/>
          <path class="cls-13" d="m2508.3,1356.9c-129.08-99.97-460.28-275.02-463.61-276.78l1.13-2.14c3.33,1.76,334.72,176.91,463.96,277.01l-1.48,1.92Z"/>
          <path class="cls-13" d="m2501.02,1446.09c-129.92-53.93-423.65-186.03-426.61-187.36l.99-2.21c2.95,1.33,296.65,133.42,426.54,187.33l-.93,2.24Z"/>
        </g>
      </g>
    </g>
    <g>
      <path class="cls-17" d="m791.13,1426.28h-498.65c-7,0-13.04-4.92-14.46-11.77l-65.09-314.06c-1.9-9.17,5.1-17.77,14.46-17.77h497.91c6.15,0,11.46,4.32,12.7,10.34l65.84,317.66c1.67,8.05-4.48,15.6-12.7,15.6Z"/>
      <path class="cls-17" d="m1091.85,1473.72c-7.24-6.98-812.91,13.5-811.39-7.2-.02-.02-.02-20.68-.02-20.68-1.51-20.71,804.17-.23,811.42-7.23,3.34.01,6.05,2.73,6.05,6.08v22.96c0,3.35-2.72,6.07-6.07,6.07Z"/>
      <path class="cls-15" d="m1091.85,1473.72c-4.51-4.23-403.49,8.18-402.66-4.38-.01-.01-.01-26.31-.01-26.31,0-2.43,1.97-4.4,4.4-4.4h398.27c3.35,0,6.07,2.72,6.07,6.07v22.96c0,3.35-2.72,6.07-6.07,6.07Z"/>
      <path class="cls-15" d="m777.97,1439.45h-40.08c-6,0-10.86-4.86-10.86-10.86h0c0-6,4.86-10.86,10.86-10.86h40.08c6,0,10.86,4.86,10.86,10.86h0c0,6-4.86,10.86-10.86,10.86Z"/>
      <path class="cls-15" d="m356.54,1439.45h-40.08c-6,0-10.86-4.86-10.86-10.86h0c0-6,4.86-10.86,10.86-10.86h40.08c6,0,10.86,4.86,10.86,10.86h0c0,6-4.86,10.86-10.86,10.86Z"/>
      <g>
        <polygon class="cls-11" points="239.29 1097.53 299.75 1397.72 788.83 1397.72 727.03 1097.53 239.29 1097.53"/>
        <g class="cls-18">
          <polyline class="cls-9" points="727.03 1097.53 265.6 1115.26 316.46 1417.74 292.47 1426.28 227.38 1082.68 727.03 1097.53"/>
        </g>
      </g>
    </g>
    <g>
      <path class="cls-2" d="m439.78,1304.76c-31.7,6.7-60.48-27.5-48.35-57.59,0,0,119.69-328.95,119.69-328.95,10.05-30.8,54.06-38.62,74.06-13.07,0,0,225.08,268.11,225.08,268.11,21.65,24.1,6.42,66.12-25.71,70.66,0,0-344.77,60.84-344.77,60.84Z"/>
      <path class="cls-8" d="m532.29,925.92c-153.53,463.14-233.38,366.21,248.34,295.82,15.83-2.79,22.71-21.68,12.37-33.99l-225.08-268.12c-10.34-12.31-30.13-8.82-35.63,6.29Z"/>
      <path class="cls-6" d="m576.74,1180.98c20.17-28.71,63.58,1.52,43.91,30.3-20.74,28.12-63.41-.77-43.91-30.3Zm-47.72-165.84l72.53-12.8,16.59,145.82-54.13,9.55-34.98-142.57Z"/>
    </g>
    <g>
      <path class="cls-6" d="m257.41,1037.3h-8c-.43-23.55,19.42-23.72,19.99-45.07-.57-21.34-20.42-21.53-19.99-45.07-.43-23.54,19.42-23.73,19.99-45.07-.57-21.34-20.42-21.53-19.99-45.07-.43-23.54,19.42-23.73,19.99-45.07h8c.43,23.55-19.42,23.72-19.99,45.07.57,21.34,20.42,21.53,19.99,45.07.43,23.54-19.42,23.73-19.99,45.07.57,21.34,20.42,21.52,19.99,45.07.43,23.54-19.42,23.73-19.99,45.07Z"/>
      <path class="cls-6" d="m313.09,1037.3h-8c-.43-23.55,19.42-23.72,19.99-45.07-.57-21.34-20.42-21.53-19.99-45.07-.43-23.54,19.42-23.73,19.99-45.07-.57-21.34-20.42-21.53-19.99-45.07-.43-23.54,19.42-23.73,19.99-45.07h8c.43,23.55-19.42,23.72-19.99,45.07.57,21.34,20.42,21.53,19.99,45.07.43,23.54-19.42,23.73-19.99,45.07.57,21.34,20.42,21.52,19.99,45.07.43,23.54-19.42,23.73-19.99,45.07Z"/>
      <path class="cls-6" d="m368.76,1037.3h-8c-.43-23.55,19.42-23.72,19.99-45.07-.57-21.34-20.42-21.53-19.99-45.07-.43-23.54,19.42-23.73,19.99-45.07-.57-21.34-20.42-21.53-19.99-45.07-.43-23.54,19.42-23.73,19.99-45.07h8c.43,23.55-19.42,23.72-19.99,45.07.57,21.34,20.42,21.53,19.99,45.07.43,23.54-19.42,23.73-19.99,45.07.57,21.34,20.42,21.52,19.99,45.07.43,23.54-19.42,23.73-19.99,45.07Z"/>
    </g>
    <rect class="cls-15" y="1469.43" width="2598.77" height="9.5"/>
    <g>
      <path class="cls-16" d="m876.63,350.12V83.55h-194.78l-185.8,266.56v129.14h211.35v98.06h169.22v-98.06h53.18v-129.14h-53.18Zm-155.41-99.1c-1.19,18.72-.54,78.31-.69,99.1h-70.45c22.18-34.52,59.7-86.33,73.9-122.23-1.38,6.9-2.31,14.62-2.76,23.13Z"/>
      <path class="cls-16" d="m1338.02,146.4c-68.39-90.63-243.09-90.22-311.51.69-75.78,82.65-75.29,291.54,0,374.98,68.41,90.91,243.12,91.32,311.5.69,75.34-81.37,75.72-295.26,0-376.36Zm-125.36,266.22c-6.22,16.35-16.23,24.51-30.05,24.51-55.19.14-42.15-149.81-30.39-181.62,11.27-32.28,49.66-32.41,60.44.35,12.42,27.76,12.41,129,0,156.76Z"/>
      <path class="cls-16" d="m1821.5,350.12V83.55h-194.78l-185.8,266.56v129.14h211.35v98.06h169.22v-98.06h53.18v-129.14h-53.18Zm-155.41-99.1c-1.19,18.72-.54,78.31-.69,99.1h-70.45c22.18-34.52,59.7-86.33,73.9-122.23-1.38,6.9-2.31,14.62-2.76,23.13Z"/>
    </g>
    <g>
      <path class="cls-11" d="m1429,1030.65h57.47v-103.48h-62.72c-7.37-27.51-19.77-54.08-36.1-77.34l47.22-47.21-73.18-73.17-49.84,49.83c-22.97-13.75-48.59-23.85-74.73-29.4v-72.02h-103.5v72.02c-26.14,5.56-51.76,15.66-74.73,29.4l-49.84-49.83-73.18,73.17,47.22,47.21c-16.33,23.27-28.73,49.83-36.1,77.34h-62.72v103.48h57.47c4.86,30.5,15.8,60.43,31.7,86.98l-37.58,37.57,73.18,73.17,34.95-34.95c26.7,18.74,57.69,32.26,89.62,39.04v47.5h103.5v-47.5c31.93-6.78,62.92-20.3,89.62-39.04l34.95,34.95,73.18-73.17-37.58-37.57c15.9-26.56,26.84-56.48,31.7-86.98Zm-243.63,135.88c-231.84-6.98-231.78-343.77,0-350.71,231.83,6.98,231.77,343.77,0,350.71Z"/>
      <path class="cls-11" d="m875.24,834.17h20.39v-36.7h-22.25c-2.61-9.76-7.01-19.18-12.8-27.43l16.75-16.74-25.96-25.95-17.68,17.68c-8.15-4.88-17.23-8.46-26.51-10.43v-25.54h-36.71v25.54c-9.27,1.97-18.36,5.55-26.51,10.43l-17.68-17.68-25.96,25.95,16.75,16.74c-5.79,8.25-10.19,17.67-12.8,27.43h-22.25v36.7h20.39c1.73,10.82,5.6,21.43,11.24,30.85l-13.33,13.33,25.96,25.95,12.4-12.4c9.47,6.65,20.46,11.44,31.79,13.85v16.85h36.71v-16.85c11.32-2.41,22.32-7.2,31.79-13.85l12.4,12.4,25.96-25.95-13.33-13.33c5.64-9.42,9.52-20.03,11.24-30.85Zm-86.41,48.2c-82.23-2.48-82.21-121.93,0-124.4,82.23,2.48,82.21,121.93,0,124.4Z"/>
    </g>
    <g>
      <g>
        <path class="cls-15" d="m1465.28,905.6l-231.39,74.03c-20.79,6.65-39.07,19.49-52.38,36.79h0c-12.99,5.45-96.43,264.65-104.49,282.09l92.23,24.84,96.71-229.24c139.9.47,295.24,25.14,338.65-148.65l-139.34-39.86Z"/>
        <polygon class="cls-15" points="1547.95 891.13 1878.06 1338.77 1813.22 1383.15 1404.08 1006.57 1547.95 891.13"/>
        <path class="cls-14" d="m1487.75,1083.32s50.05-26.37,62.88-67.41l37.34,159.66-100.22-92.25Z"/>
        <g>
          <g>
            <path class="cls-7" d="m1101.59,1304.99l-5.18,24.85s.95,26.07,18.19,30.99c17.25,4.92,19.48-.2,19.48-.2l14.37-42.27-46.87-13.36Z"/>
            <g class="cls-21">
              <path class="cls-8" d="m1146.92,1342.01s-41.84-18.35-50.35-32.39l2.39-10.47,56.12,17.32-8.16,25.54Z"/>
            </g>
          </g>
          <path class="cls-15" d="m1134.08,1360.62s-38.41-1.03-37.34-32.91l-79.58,13.26c-11.41,1.9-20.4,10.75-22.47,22.13h0l123.17,33.32c6.07,1.64,12.18-2.48,12.94-8.71l3.29-27.09Z"/>
        </g>
        <g>
          <g>
            <path class="cls-7" d="m1824.81,1374.55l16.31,19.45s21.06,15.39,35.6,4.89c14.54-10.5,11.9-15.42,11.9-15.42l-23.34-35.95-40.48,27.04Z"/>
            <g class="cls-20">
              <path class="cls-8" d="m1881.95,1361.87s-40.31,21.5-56.61,19.49l-6.75-8.36,48.34-33.35,15.01,22.22Z"/>
            </g>
          </g>
          <path class="cls-15" d="m1907.87,1402.82l-19.25-19.35s-24.58,29.53-48.97,8.95l-25.52,46.46c-16.27,6.6-38.03,13.35-36.28,35.19l71.91-13.38,56.95-42.32c5.04-3.75,5.59-11.1,1.16-15.55Z"/>
        </g>
        <g>
          <g>
            <g>
              <path class="cls-5" d="m2308.44,561.52l-216.98,21.96c-34.4,3.48-65.1-21.58-68.58-55.96l-42.76-422.34c-3.48-34.39,21.58-65.09,55.97-68.57l216.98-21.96c34.4-3.48,65.1,21.58,68.58,55.97l42.76,422.34c3.48,34.39-21.58,65.09-55.97,68.57Z"/>
              <rect class="cls-4" x="1985.39" y="123.96" width="343.28" height="49.31" transform="translate(-4 217.95) rotate(-5.78)"/>
              <rect class="cls-4" x="2015.7" y="423.32" width="343.28" height="49.31" transform="translate(-33.99 222.53) rotate(-5.78)"/>
            </g>
            <g>
              <path class="cls-4" d="m2004.69,347.89l-471.98,76.46c-9.47,1.53-18.28-5.23-19.25-14.77l-8.45-83.49c-.96-9.5,6.24-17.86,15.78-18.32l477.51-22.96,6.39,63.09Z"/>
              <g class="cls-19">
                <path class="cls-15" d="m1944.72,249.2c5.89,10.22,38.29,114.2,38.29,114.2l38.28-1.76-13.79-96.1-62.78-16.33Z"/>
                <path class="cls-15" d="m1643.85,410.11c5.85-15.91,20.51-55.66,26.38-70.99l-45.6,29.75-17,49.76,36.21-8.52Z"/>
              </g>
            </g>
          </g>
          <polygon class="cls-8" points="1552.86 570.54 1647.82 405.7 1647.82 405.7 1692.4 398.48 1620.37 581.73 1552.86 570.54"/>
          <g>
            <g>
              <path class="cls-8" d="m1612.51,527.68l-48.65,49.26c-8.78,8.89-7.37,23.55,2.93,30.61l28.38,19.45-14.78,54.59,48.39,24.19,32.36-153.78-48.63-24.31Z"/>
              <g class="cls-24">
                <path class="cls-8" d="m1555.73,590.98s20.73,18.08,52.08,22.77c0,0-11.02,7.3-13.46,16.34-2.45,9.04,0,0,0,0,0,0-42.26-22.45-38.61-39.11Z"/>
              </g>
            </g>
            <path class="cls-15" d="m1609.18,531.06s-15.73,40.96,11.07,56.42l6.6-13.19s12.61,19.64-8.26,21.45l15.74,34.53,9.37,4.68,45.33-66.99c5.4-7.99,4.22-18.7-2.8-25.32-20.03-18.89-61.82-53.51-97.75-52.04,0,0,3.03,18.7,21.71,29.59,0,0-11.49-2.16-26.92-16.17,0,0,2.11,24.93,25.9,27.03Z"/>
            <g>
              <path class="cls-2" d="m1630.17,678.11l-27.68-85.99-97.57,36.44,27.91,98.27-142.19,178.77c49.8,82.16,223.11,73.14,223.11,73.14l40.26-249.71c3.33-20.68-6.57-40.68-23.84-50.92Z"/>
              <g class="cls-23">
                <path class="cls-12" d="m1532.83,726.83l15.66,58.75s-70.29,87.12-157.85,120.03c-87.56,32.91,0,0,0,0l142.19-178.77"/>
              </g>
            </g>
            <g>
              <path class="cls-7" d="m1670.23,339.12c-3.45-5.57-26.85,4.59-26.85,4.59,0,0,.44-40.33-.93-41.8-1.37-1.47-31.11-.67-36.07,2.3-2.34,1.4-7.78,56.85-7.78,56.85h0c-4.86,15.36-115.47,181.55-102.84,195.82,0,0,15.16,69.44,15.16,69.44l68.96-25.75-13.14-51.79c-.45-1.79-.32-3.67.39-5.37l72.04-173.59s34.53-25.12,31.08-30.69Z"/>
              <g class="cls-22">
                <path class="cls-8" d="m1494.97,589.4s40.67,14,79.42,13.54c38.75-.46,0,0,0,0l-72.42,32.02-7-45.55Z"/>
              </g>
            </g>
          </g>
        </g>
      </g>
      <path class="cls-14" d="m1405.82,924.63s41.03,41.76,142.47,51.91c0,0-119.57,40.33-195.94-34.8l53.47-17.11Z"/>
    </g>
  </g>
</svg>