<?xml version="1.0" encoding="UTF-8"?>
<svg id="_레이어_2" data-name="레이어 2" xmlns="http://www.w3.org/2000/svg" viewBox="0 0 2740.96 1643.67">
  <defs>
    <style>
      .cls-1 {
        fill: #f6f5f5;
      }

      .cls-2 {
        fill: #f9a584;
      }

      .cls-3 {
        fill: #696ced;
      }

      .cls-4 {
        fill: #eb5d8a;
      }

      .cls-5 {
        fill: #e48631;
      }

      .cls-6 {
        fill: #fff;
      }

      .cls-7 {
        fill: #fbb343;
      }

      .cls-8 {
        fill: #e5f4ff;
      }

      .cls-9 {
        fill: #9ed7ff;
      }

      .cls-10 {
        fill: #ab4465;
      }

      .cls-11 {
        fill: #e27d6d;
      }

      .cls-12 {
        fill: #dadada;
      }

      .cls-13 {
        fill: #d3edff;
      }

      .cls-14, .cls-15 {
        fill: #103248;
      }

      .cls-16 {
        fill: #1f5d88;
      }

      .cls-17 {
        fill: #3aa2ea;
      }

      .cls-18 {
        fill: #77c6ff;
      }

      .cls-19 {
        fill: #4d50ad;
      }

      .cls-15 {
        opacity: .3;
      }
    </style>
  </defs>
  <g id="OBJECTS">
    <g>
      <g>
        <path class="cls-1" d="m2474.87,798.9c-110.27-79.45-242.41-117.89-364.06-175.44-117-55.34-200.25-144.27-304.93-217.54-171.04-119.73-368.74-209.51-569.94-264.3-203.45-55.4-451.97-86.09-637.42,36.72-91.21,60.4-165.45,154.08-195.69,259.87-35.99,125.88-.77,254.5,16.49,380.3,14.03,102.22-51.6,158.61-128.92,216.7-181.05,136-176.02,382.1-64.15,558.49h2330.11c138.37-250.67,199.21-592.55-81.49-794.79Z"/>
        <circle class="cls-1" cx="237.88" cy="811.69" r="86.37"/>
        <circle class="cls-1" cx="2282.94" cy="383.06" r="127.66"/>
        <circle class="cls-1" cx="253.41" cy="584.03" r="38.26" transform="translate(-363.04 743.08) rotate(-81.01)"/>
        <circle class="cls-1" cx="2381.86" cy="605.25" r="38.26" transform="translate(-50.31 957.57) rotate(-22.5)"/>
        <path class="cls-12" d="m148.62,1587.76c-110.81-94.54-111.83-259.95-63.68-381.95,53.61-135.84,179.26-247.65,344.75-306.77,4.02-1.43,8.04-2.84,12.06-4.24l1.49,4.3c-4.01,1.39-8.02,2.81-12.03,4.23-164.25,58.68-288.93,169.54-342.05,304.16-47.55,120.49-46.7,283.73,62.41,376.82l-2.95,3.46Z"/>
        <path class="cls-12" d="m2480.85,1593.05l-4.04-2.08c81.83-159.08,130.31-319.5,140.18-463.92,9.73-142.38-18.52-259.82-81.68-339.62-57.32-72.41-171.38-147.37-389.27-93.24l-1.09-4.41c220.22-54.71,335.77,21.37,393.92,94.83,63.88,80.69,92.46,199.22,82.65,342.75-9.91,145.04-58.55,306.07-140.67,465.69Z"/>
        <path class="cls-12" d="m659.03,321.34l-4.4-1.13c.31-1.19,7.78-29.68,32.76-67.35,23.01-34.7,65.85-83.83,139.28-120.83,84.09-42.38,189.93-60.36,314.57-53.45,155.98,8.66,341.98,56.55,552.83,142.36l-1.71,4.21c-210.39-85.62-395.9-133.4-551.37-142.03-123.86-6.88-228.91,10.95-312.28,52.97-72.54,36.56-114.83,85.04-137.54,119.29-24.56,37.03-32.07,65.68-32.14,65.97Z"/>
      </g>
      <g>
        <path class="cls-13" d="m609.6,324.68h1625.4c15.96,0,28.91,12.95,28.91,28.91v1143.66c0,15.96-12.95,28.91-28.91,28.91H609.6c-15.96,0-28.91-12.95-28.91-28.91V353.59c0-15.96,12.95-28.91,28.91-28.91Z"/>
        <g>
          <g>
            <rect class="cls-6" x="631.82" y="420.27" width="1580.96" height="958.41"/>
            <path class="cls-9" d="m2215.05,1380.95H629.54V417.99h1585.5v962.96Zm-1580.96-4.55h1576.41V422.54H634.09v953.87Z"/>
          </g>
          <g>
            <rect class="cls-6" x="631.82" y="360.67" width="1580.96" height="59.6"/>
            <path class="cls-9" d="m2215.05,422.54H629.54v-64.14h1585.5v64.14Zm-1580.96-4.55h1576.41v-55.05H634.09v55.05Z"/>
          </g>
        </g>
        <g>
          <path class="cls-9" d="m706.13,404.24c-7.59,0-13.77-6.18-13.77-13.77s6.18-13.77,13.77-13.77,13.77,6.18,13.77,13.77-6.18,13.77-13.77,13.77Zm0-22.99c-5.08,0-9.22,4.14-9.22,9.22s4.14,9.22,9.22,9.22,9.22-4.14,9.22-9.22-4.14-9.22-9.22-9.22Z"/>
          <path class="cls-9" d="m752.11,404.24c-7.59,0-13.77-6.18-13.77-13.77s6.18-13.77,13.77-13.77,13.77,6.18,13.77,13.77-6.18,13.77-13.77,13.77Zm0-22.99c-5.08,0-9.22,4.14-9.22,9.22s4.14,9.22,9.22,9.22,9.22-4.14,9.22-9.22-4.14-9.22-9.22-9.22Z"/>
          <path class="cls-9" d="m798.1,404.24c-7.59,0-13.77-6.18-13.77-13.77s6.18-13.77,13.77-13.77,13.77,6.18,13.77,13.77-6.18,13.77-13.77,13.77Zm0-22.99c-5.08,0-9.22,4.14-9.22,9.22s4.14,9.22,9.22,9.22,9.22-4.14,9.22-9.22-4.14-9.22-9.22-9.22Z"/>
        </g>
        <g>
          <rect class="cls-13" x="497.7" y="1508.12" width="1849.19" height="85.76"/>
          <path class="cls-9" d="m2349.45,1596.43H495.15v-90.86h1854.3v90.86Zm-1849.2-5.1h1844.09v-80.65H500.25v80.65Z"/>
        </g>
        <g>
          <rect class="cls-6" x="1322.41" y="1419.41" width="199.77" height="47.98" rx="18.47" ry="18.47"/>
          <path class="cls-9" d="m1501.19,1469.66h-157.79c-12.83,0-23.26-10.44-23.26-23.26v-5.99c0-12.83,10.44-23.26,23.26-23.26h157.79c12.83,0,23.26,10.44,23.26,23.26v5.99c0,12.83-10.44,23.26-23.26,23.26Zm-157.79-47.98c-10.32,0-18.72,8.4-18.72,18.72v5.99c0,10.32,8.4,18.72,18.72,18.72h157.79c10.32,0,18.72-8.4,18.72-18.72v-5.99c0-10.32-8.4-18.72-18.72-18.72h-157.79Z"/>
        </g>
        <g>
          <path class="cls-9" d="m1988.66,842.83H855.93c-40.93,0-74.24-33.3-74.24-74.24v-4.96c0-40.93,33.3-74.24,74.24-74.24h1132.72c40.94,0,74.24,33.3,74.24,74.24v4.96c0,40.93-33.3,74.24-74.24,74.24Zm-1132.72-148.89c-38.43,0-69.69,31.26-69.69,69.69v4.96c0,38.43,31.26,69.69,69.69,69.69h1132.72c38.43,0,69.69-31.26,69.69-69.69v-4.96c0-38.43-31.26-69.69-69.69-69.69H855.93Z"/>
          <rect class="cls-13" x="830.58" y="738.37" width="182.67" height="55.47" rx="22.85" ry="22.85"/>
          <rect class="cls-13" x="1069.44" y="738.37" width="166.04" height="55.47" rx="23.15" ry="23.15"/>
          <rect class="cls-13" x="1281.76" y="738.37" width="210.14" height="55.47" rx="24.41" ry="24.41"/>
          <rect class="cls-13" x="1557.41" y="738.07" width="288.54" height="55.47" rx="24.41" ry="24.41"/>
        </g>
        <rect class="cls-9" x="1231.39" y="574.19" width="381.82" height="39.98"/>
        <g>
          <rect class="cls-18" x="1294.41" y="1086.21" width="67.65" height="129.54"/>
          <rect class="cls-13" x="1433.95" y="1009.15" width="67.65" height="206.6"/>
          <rect class="cls-18" x="1573.48" y="963.78" width="67.65" height="251.97"/>
          <rect class="cls-13" x="1713.02" y="1073.42" width="67.65" height="142.33"/>
          <rect class="cls-18" x="1852.56" y="991.2" width="67.65" height="224.55"/>
          <rect class="cls-13" x="1992.09" y="905.9" width="67.65" height="309.85"/>
        </g>
        <g>
          <rect class="cls-8" x="763.83" y="898.03" width="381.82" height="24.38"/>
          <rect class="cls-8" x="763.83" y="966.47" width="381.82" height="249.28"/>
          <g>
            <path class="cls-9" d="m972.04,1059.13c-14.38-5.68-29.17-1.22-39.72,9.1-9.62,9.4-10.97,22.69-15.5,34.55,9.35,2.55,17.76,8.09,27.95,6.5,13.24-2.06,13.59-14.41,21.09-22.83,6.43-7.21,14.13-11.86,23.33-13.09-3.95-5.82-8.77-10.92-17.15-14.22Z"/>
            <path class="cls-9" d="m1080.17,1046.2c-13.02,2.83-26.7,7.46-35.99,16.95-7.99,8.16-7.7,22.37-13.5,30.95,6.55,4.36,13.93,6.4,21.11,2.52,7.03-3.8,11.3-12.35,18.88-16.07,6.09-3,14.85-4.89,21.47-6.08,1.53-.27,3.09-.45,4.64-.66v-30.3c-5.56.63-11.1,1.49-16.6,2.69Z"/>
            <path class="cls-18" d="m1092.14,1074.47c-6.63,1.19-15.38,3.08-21.47,6.08-7.58,3.73-11.85,12.27-18.88,16.07-7.18,3.88-14.56,1.85-21.11-2.52-2.58-1.72-5.04-3.79-7.3-6.02-8.96-8.83-11.76-13.82-25.94-14.97-2.89-.23-5.62-.12-8.26.24-9.2,1.24-16.9,5.88-23.33,13.09-7.5,8.42-7.85,20.77-21.09,22.83-10.19,1.59-18.6-3.95-27.95-6.5-3.73-1.02-7.61-1.58-11.81-1-9.86,1.36-16.1,7.28-22.97,11.77-4.79,3.13-9.88,5.57-16.73,5.26-15.29-.67-35-9.48-52.61-10.05v68.08h284.08v-103.04c-1.55.21-3.11.39-4.64.66Z"/>
            <path class="cls-9" d="m882.03,1113.55c-1.12-.98-2.18-2.03-3.13-3.21-7.03-8.73-7.6-19.81-15.38-27.99-15.15-15.93-35.84-9.63-50.82,3.92v22.5c17.61.57,37.32,9.37,52.61,10.05,6.85.3,11.94-2.14,16.73-5.26Z"/>
          </g>
        </g>
      </g>
      <g>
        <g>
          <path class="cls-2" d="m471.84,951.45l-72.59,14.23,16.57-106.75,44.64.91c-.28,1.88-.57,3.7-.74,5.58-1.65,14.35-.8,28.75,1.02,41.62,3.64,25.28,11.1,44.41,11.1,44.41Z"/>
          <path class="cls-14" d="m460.74,907.04c-27.9-13.15-38.26-40.77-38.26-40.77l37.24-.85c-1.65,14.35-.8,28.75,1.02,41.62Z"/>
          <path class="cls-2" d="m476.1,798.19c2.85,9.96,18.98,73.07-10.44,80.18-29.42,7.12-59.78-19.93-59.78-19.93l9.96-60.73,42.7-12.81,17.55,13.28Z"/>
          <path class="cls-4" d="m437.13,832.52s7.65-50.47,38.96-34.34c-1.12-.58-2.74-5.61-3.44-6.76-3.16-5.18-7.22-9.88-12.13-13.47-17.82-13.06-47.87-8.31-62.24,6.71-14.15,14.79-14.59,41.07-7.3,60.18,1.18,3.09,2.67,6.06,4.46,8.84,1.63,2.53,3.55,4.63,5.72,6.71,1.86,1.79,15.83,12.79,15.98,4.33.36-20.64,19.99-32.2,19.99-32.2Z"/>
          <ellipse class="cls-2" cx="434.25" cy="832.13" rx="12.46" ry="15.43" transform="translate(-428.72 462.95) rotate(-39.28)"/>
          <ellipse class="cls-2" cx="482.02" cy="834.04" rx="6.63" ry="7.2"/>
        </g>
        <g>
          <g>
            <path class="cls-14" d="m386.9,1363.26l-86.35,37.01s71.17,181.24,92.04,192.63c20.88,11.39,10.44-89.2,24.67-119.56l18.03-71.17-48.39-38.91Z"/>
            <rect class="cls-6" x="393.97" y="1453.24" width="9.1" height="37.57" transform="translate(-1097.6 1767.5) rotate(-86.02)"/>
          </g>
          <path class="cls-3" d="m365.07,1349.98l52.19,123.36s203.07-106.28,253.36-203.07l-79.71-104.38-225.84,184.09Z"/>
          <path class="cls-14" d="m637.41,1449.61s94.89,3.8,138.54-71.17l-96.79-14.23-41.75,85.4Z"/>
          <g>
            <polygon class="cls-2" points="785.84 1462.57 678.79 1500.39 670.15 1469.84 654.47 1414.52 743.7 1372.29 749.97 1385.75 785.84 1462.57"/>
            <polygon class="cls-14" points="921.13 1593.85 803.94 1501.33 785.85 1462.58 678.8 1500.37 705.26 1593.85 921.13 1593.85"/>
            <rect class="cls-6" x="772.25" y="1512.2" width="39.2" height="9.09" transform="translate(-890.24 1203.47) rotate(-51.88)"/>
            <polygon class="cls-11" points="749.97 1385.75 670.15 1469.84 654.47 1414.52 743.7 1372.29 749.97 1385.75"/>
          </g>
          <path class="cls-3" d="m775.97,1378.43c-50.46,12.73-96.59,36.5-138.55,71.18l-72.14-189.78s-145.55,138.73-232.46,115.78c-82.59-21.82-46.55-158.5-46.55-158.5,113.41-79.41,293.82-186.05,372.87-101.59.41.36.73.68,1.05,1.05,16.18,17.77,34.46,52.91,51.64,91.82,34.27,77.5,64.14,170.05,64.14,170.05Z"/>
          <path class="cls-19" d="m711.83,1208.38c-78.64,18.5-159.55-68.86-159.55-68.86l81.27-26.68,25.59,2.68c.41.36.73.68,1.05,1.05,16.18,17.77,34.46,52.91,51.64,91.82Z"/>
          <path class="cls-19" d="m635.3,1450.42l-70.92-186.56c-15.38,14.61-99.06,91.18-187.28,114.43l-1.16-4.39c96.03-25.31,186.83-114.77,187.74-115.68l2.48-2.47,73.38,193.05-4.25,1.62Z"/>
        </g>
        <g>
          <path class="cls-7" d="m403.24,911.83l-31.86,103-42.86,138.55s-31.27,11.23-58.86,7.73c-24.36-3.09-45.86-17.73-40.05-61.96,12.82-97.5,173.64-187.32,173.64-187.32Z"/>
          <path class="cls-5" d="m371.37,1014.83l-42.86,138.55s-31.27,11.23-58.86,7.73c23.14-142.23,99.68-202.82,99.68-202.82l2.05,56.55Z"/>
          <polygon class="cls-7" points="714.97 1013.79 691.24 1104.15 611.15 1028.6 642.92 975.33 685.88 998.24 714.97 1013.79"/>
          <polygon class="cls-2" points="643.1 975.42 673.5 926.84 734.91 900.67 714.79 1013.97 643.1 975.42"/>
          <g>
            <path class="cls-16" d="m941.47,882.46c-16.14-3.86-30.68-3.23-43.82,1.59-8.68,3.18-16.77,8.23-24.23,15.05l-29.68-68.82c10.32-1.82,19.73-4.91,28.23-9.41,12.32-6.5,22.59-15.91,30.59-28.68l38.91,90.27Z"/>
            <polygon class="cls-16" points="873.5 899.04 843.84 830.24 406.85 1037.68 422.64 1074.31 873.5 899.04 843.84 830.24 873.5 899.04"/>
            <path class="cls-14" d="m941.47,882.46c-16.14-3.86-30.68-3.23-43.82,1.59l-25.68-63.18c12.32-6.5,22.59-15.91,30.59-28.68l38.91,90.27Z"/>
            <circle class="cls-16" cx="1116.74" cy="753.4" r="233.45" transform="translate(-205.65 1010.32) rotate(-45)"/>
            <circle class="cls-6" cx="1116.74" cy="753.4" r="194.49" transform="translate(-205.65 1010.32) rotate(-45)"/>
            <g>
              <path class="cls-9" d="m939.45,673.48h354.55c-.77-1.7-1.53-3.41-2.34-5.08h-349.78c-.82,1.69-1.65,3.37-2.42,5.08Z"/>
              <path class="cls-9" d="m1293.41,834.69h-353.28c.78,1.7,1.54,3.41,2.36,5.08h348.47c.83-1.68,1.67-3.37,2.45-5.08Z"/>
              <path class="cls-13" d="m971.5,756.06v-3.95c0-15.95-13.05-29-29-29h-17.84c-3.22,20.26-3.27,41.16.18,61.96h17.66c15.95,0,29-13.05,29-29Z"/>
              <path class="cls-13" d="m1063.64,723.1h126.67c16.22,0,29.39,13.17,29.39,29.39v3.18c0,16.22-13.17,29.39-29.39,29.39h-126.67c-16.22,0-29.39-13.17-29.39-29.39v-3.18c0-16.22,13.17-29.39,29.39-29.39Z"/>
              <path class="cls-13" d="m1308.9,723.1h-6.53c-17.04,0-30.98,13.94-30.98,30.98s13.94,30.98,30.98,30.98h6.24c3.36-20.24,3.59-41.14.29-61.96Z"/>
            </g>
          </g>
          <path class="cls-2" d="m714.97,1013.79l-29.09-15.55,17.73-38.5s24.68-44.59,37-42.68c12.32,1.86-25.64,96.73-25.64,96.73Z"/>
          <path class="cls-7" d="m611.17,1028.6l-6.04,10.14c-12.01-16.51-38.49-51.7-71.79-79.65h0c-29.95-25.11-70.58-64.16-106.05-58.75-94.97,14.4-140.99,316.78-140.99,316.78l245.73-88.95,55.05,42.89c11.97,9.33,27.03,13.79,42.15,12.48h0c25.4-2.19,46.67-20.15,53.08-44.83l8.96-34.53-80.09-75.57Z"/>
          <rect class="cls-5" x="496.42" y="1054.08" width="4.54" height="89.08" transform="translate(-654.28 743.19) rotate(-48.45)"/>
          <rect class="cls-5" x="616.3" y="1024.26" width="4.54" height="69.58" transform="translate(-497.79 551.16) rotate(-35.25)"/>
        </g>
      </g>
      <g>
        <g>
          <path class="cls-11" d="m1855.59,441.75s-11.49,35.98-40.48,51.97c-28.99,15.99-67.47,32.98-54.47,38.48,12.99,5.5,47.73,2,47.73,2,0,0-67.22,51.97-48.23,57.47,18.99,5.5,64.97-31.98,64.97-31.98,0,0-6.25,13.99,3.25,16.99,9.5,3,27.74-.5,27.74-.5,0,0-2.5,10,16.49,7.5,18.99-2.5,68.47-62.47,68.47-62.47l3.5-54.97-88.96-24.49Z"/>
          <path class="cls-17" d="m1797.12,132.9s74.96-19.49,187.41,50.98c101.19,63.41,107.95,125.94,59.97,203.9-47.98,77.96-103.45,133.44-103.45,133.44l-85.46-79.46,74.96-116.94-133.44-191.91Z"/>
          <path class="cls-17" d="m1770.63,144.89s-105.95,56.97-159.92,179.91h369.82l-101.95-161.92-107.95-17.99Z"/>
          <path class="cls-11" d="m1666.3,324.31s36.36,6.37,49.1,0c12.74-6.37-27.74-24.74-62.59-33.36-34.86-8.62-75.71-23.99-109.45,23.99-33.73,47.98-30.36,51.35-19.49,50.6,10.87-.75,36.73-32.98,36.73-32.98,0,0-27.74,34.86-14.62,38.61s44.6-43.85,44.6-43.85c0,0-26.99,38.61-13.12,43.1,13.87,4.5,43.85-42.73,43.85-42.73,0,0-30.36,47.6-11.99,46.48,11.95-.73,25.65-21.62,33.76-36.12,4.72-8.44,13.55-13.73,23.22-13.73h0Z"/>
          <path class="cls-14" d="m1796.5,197.23c-14.4,0-25.77-6.18-25.99-6.3l2.22-3.97c1.5.83,37.09,20.06,60.05-15.72l3.83,2.45c-11.94,18.6-27.24,23.53-40.11,23.53Z"/>
          <polygon class="cls-14" points="1857.49 442.99 1853.68 440.51 1950.36 291.97 1913.28 234.12 1917.11 231.66 1955.78 291.99 1857.49 442.99"/>
        </g>
        <g>
          <path class="cls-11" d="m1818.3,149.62c-6.1,21.74-35.19,26.31-48.59,8.14l-3.57-4.81-23.08-31.27,23.78-30.92,2.28-2.98,5.41,4.02,3.92,2.93,41.54,31.07c.84,9.63.1,17.47-1.69,23.83Z"/>
          <path class="cls-14" d="m1766.14,152.95l-23.08-31.27,23.78-30.92,7.69,1.04,3.67.5s.1.84.25,2.43c.6,8.04,1.39,34.65-12.31,58.22Z"/>
          <path class="cls-11" d="m1677.29,72.45s51.48,92.45,88.52,53.77c28.13-29.37,8.27-69.9,8.27-69.9l-27.3-26.47-60.8,18.2-8.69,24.4Z"/>
          <path class="cls-7" d="m1756.7,77s-17.37-27.61-36.3-14.58c-18.92,13.03-41.16,48.08-67.11,27.82-18.06-14.11-5.79-54.19,18.1-50.77,0,0,26.37-50.57,71.66-37.23s27.92,40.33,52.12,44.36c24.2,4.03,102.55,9.66,89.53,92.49,0,0-33.52-8.95-61.51-5.82-34.98,3.91-58.63-53.78-58.63-53.78-2.27.62-7.86-2.48-7.86-2.48Z"/>
          <ellipse class="cls-11" cx="1761.05" cy="74.83" rx="13.65" ry="17.68"/>
        </g>
      </g>
      <rect class="cls-14" y="1590.29" width="2740.96" height="6.82"/>
      <g>
        <g>
          <rect class="cls-16" x="2104.59" y="1344.66" width="187.5" height="109.09"/>
          <polygon class="cls-14" points="2313.91 1593.49 2413.82 1643.67 2379.83 1513.73 2335.89 1505.29 2289.88 1521.73 2313.91 1593.49"/>
          <path class="cls-17" d="m2335.91,1505.29l-22,88.18s-94.87-12.5-187.82-33.14c-42.86-9.45-85.32-20.68-117.87-33.23-17.14-6.59-31.55-13.55-41.82-20.77-72.23-50.91-46.46-168.14,76.05-148.09,47.46,7.77,98.64,28.91,144.82,52.86,21.05,10.86,41,22.36,59.09,33.41,52.82,32.18,89.55,60.77,89.55,60.77Z"/>
          <path class="cls-15" d="m2246.36,1444.52l-120.28,115.82c-42.86-9.45-85.32-20.68-117.87-33.23l179.05-116c21.05,10.86,41,22.36,59.09,33.41Z"/>
          <g>
            <polygon class="cls-14" points="1999.02 1521.23 1878.08 1591.45 2056.06 1590.71 2067.49 1523.23 1999.02 1521.23"/>
            <polygon class="cls-2" points="2104.97 1505.74 2067.49 1523.23 2056.06 1590.71 2058.49 1590.7 2132.95 1591.7 2158.94 1559.21 2104.97 1505.74"/>
          </g>
          <path class="cls-17" d="m2104.97,1505.74s141.93-138.93,264.87-171.92c113.98-30.58,147.93,83.96,83.96,140.93-63.97,56.97-320.85,116.94-320.85,116.94l-27.99-85.96Z"/>
          <path class="cls-14" d="m2133.51,1593.9l-1.11-4.4c88.15-22.26,178.73-46.43,244.08-72.32l1.68,4.23c-65.6,25.99-156.35,50.21-244.65,72.5Z"/>
        </g>
        <g>
          <path class="cls-14" d="m2190.73,959.23c-12.77,1.04-24.81,4.18-35.44,11.74-8.87,6.31-15.67,15.05-20.04,25-6.77,15.43-5.2,32.66-10.4,48.46-5,15.22-17.24,23.07-28.65,33.24-10.98,9.79-18.88,25.99-14.96,40.86,1.09,4.13,3.09,7.95,5.75,11.28,2.04,2.55,8.26,9.9,11.77,9.92,0,0,193.04.85,193.04.85,0,0,35.88-33.6-5.41-72.89-11.46-10.91-24.29-22.11-30.12-37.43-3.6-9.46-5.41-19.44-8.12-29.15-3.46-12.39-11.08-25.03-21.36-32.89-10.35-7.92-23.33-10.05-36.07-9.01Z"/>
          <path class="cls-14" d="m2174.5,970.9s-32.17-24.49-.28-35.59c24.39-8.49,47.26,1.14,32.75,32.74l-32.46,2.85Z"/>
        </g>
        <g>
          <path class="cls-4" d="m2182.93,1093.69s-181.41,30.74-217.4,155.92c-35.98,125.19,182.99,133.3,182.99,133.3,0,0,215.06-7.36,253.3-41.85,38.23-34.48,57.72-209.15-197.9-245.88l-20.99-1.5Z"/>
          <path class="cls-10" d="m2194.62,1162.15c-1.18,0-2.35-.05-3.52-.14-13.04-1.06-23.36-7.8-29.07-18.98l4.05-2.07c4.96,9.72,13.98,15.59,25.39,16.51,13.97,1.18,29.04-5.32,36.67-15.69l3.66,2.69c-7.87,10.7-22.76,17.67-37.18,17.67Z"/>
          <rect class="cls-10" x="2073.62" y="1217.45" width="4.55" height="122.01" transform="translate(-223.37 2089.12) rotate(-51.05)"/>
          <rect class="cls-10" x="2256.39" y="1277.14" width="114.4" height="4.54" transform="translate(-273.02 1826.27) rotate(-40.88)"/>
        </g>
        <rect class="cls-6" x="2087.02" y="1236.62" width="211.81" height="154.67" rx="11.49" ry="11.49"/>
        <g>
          <path class="cls-2" d="m2172.97,1054.91l-4.93,46.97c-.95,9.01,2.62,17.89,9.48,23.58h0c9.37,7.78,22.72,7.86,32.18.21l.43-.35c7.19-5.82,10.86-15.13,9.65-24.46l-6.1-46.77-40.71.83Z"/>
          <path class="cls-14" d="m2172.08,1064.58c14.38,28.19,30.61,28.76,42.99.71l-25.48-3.27-17.51,2.56Z"/>
          <ellipse class="cls-2" cx="2193.95" cy="1029.84" rx="34.38" ry="44.99"/>
          <path class="cls-14" d="m2234.01,1022.44s-34.45-.57-45.84-28.47c0,0-18.51,6.55-23.35,30.47l-13.1,4.56-.28-37.58,29.04-18.51,25.91.57,22.78,19.08,4.84,29.9Z"/>
          <path class="cls-2" d="m2169.65,1026.22c3.84,7.4,1.85,16.04-4.43,19.29-6.28,3.26-14.48-.1-18.32-7.5-3.84-7.4-1.85-16.04,4.43-19.29,6.28-3.26,14.48.1,18.32,7.5Z"/>
          <path class="cls-2" d="m2219.5,1026.22c-3.84,7.4-1.85,16.04,4.43,19.29,6.28,3.26,14.48-.1,18.32-7.5,3.84-7.4,1.85-16.04-4.43-19.29-6.28-3.26-14.48.1-18.32,7.5Z"/>
        </g>
      </g>
    </g>
  </g>
</svg>